<svg width="833.736328" height="321.605225" viewBox="0 0 833.736 321.605" fill="none" xmlns="http://www.w3.org/2000/svg" xmlns:xlink="http://www.w3.org/1999/xlink">
	<desc>
			Created with Pixso.
	</desc>
	<defs/>
	<g opacity="0.100000">
		<path id="404" d="M541.33 159.81C541.22 262.18 494.1 321.6 415.92 321.6C337.73 321.5 290.3 261.87 290.61 159.81C290.71 58.06 338.04 0 415.92 0C493.79 0 541.53 58.27 541.33 159.81ZM149.07 260.2L-0.01 260.2L-0.01 208.49L129.68 4.27L211.83 4.27L211.83 207.66L250.4 207.66L250.4 260.2L211.83 260.2L211.83 314.82L149.07 314.82L149.07 260.2ZM732.4 260.2L583.33 260.2L583.33 208.49L713.01 4.27L795.16 4.27L795.16 207.66L833.73 207.66L833.73 260.2L795.16 260.2L795.16 314.82L732.4 314.82L732.4 260.2ZM357.43 159.81C357.33 231.43 380.37 267.18 415.92 267.18C451.46 267.18 474.5 231.43 474.29 159.81C474.29 89.34 451.26 53.89 415.92 53.89C380.47 53.89 357.54 89.34 357.43 159.81ZM66.19 207.66L150.32 207.66L150.32 75.89L147.92 75.89L66.19 205.16L66.19 207.66ZM649.53 207.66L733.65 207.66L733.65 75.89L731.26 75.89L649.53 205.16L649.53 207.66Z" fill="#454545" fill-opacity="1.000000" fill-rule="evenodd"/>
	</g>
</svg>
