<svg width="420" height="250" viewBox="0 0 420 250" fill="none" xmlns="http://www.w3.org/2000/svg">
<rect width="420" height="250" rx="20" fill="#F2F2F2"/>
<path d="M32.4 51V49.45C32.7533 49.4833 33.0467 49.4667 33.28 49.4C33.5133 49.3333 33.7033 49.19 33.85 48.97C34.0033 48.75 34.1367 48.43 34.25 48.01C34.3633 47.5833 34.4733 47.03 34.58 46.35C34.72 45.55 34.8367 44.7433 34.93 43.93C35.0233 43.11 35.1033 42.29 35.17 41.47C35.2433 40.6433 35.3033 39.8233 35.35 39.01C35.3967 38.19 35.4367 37.3867 35.47 36.6H44.74V51H42.96V38.29H37.16C37.12 38.8967 37.0767 39.5467 37.03 40.24C36.99 40.9267 36.9367 41.6433 36.87 42.39C36.8033 43.1367 36.7233 43.9067 36.63 44.7C36.5367 45.4933 36.42 46.3 36.28 47.12C36.1667 47.78 36.03 48.3833 35.87 48.93C35.7167 49.4767 35.5 49.9333 35.22 50.3C34.9467 50.6667 34.5833 50.9167 34.13 51.05C33.6833 51.1833 33.1067 51.1667 32.4 51ZM56.3506 51.3C55.4306 51.3 54.6173 51.1033 53.9106 50.71C53.2106 50.3167 52.6473 49.76 52.2206 49.04C51.794 48.32 51.5273 47.47 51.4206 46.49H49.3106V51H47.5306V40.2H49.3106V44.71H51.4106C51.5173 43.71 51.7873 42.85 52.2206 42.13C52.654 41.41 53.224 40.86 53.9306 40.48C54.6373 40.0933 55.4506 39.9 56.3706 39.9C57.444 39.9 58.3673 40.1433 59.1406 40.63C59.9206 41.1167 60.5173 41.7867 60.9306 42.64C61.3506 43.4933 61.5606 44.4733 61.5606 45.58C61.5606 46.7067 61.3473 47.7 60.9206 48.56C60.5006 49.42 59.9006 50.0933 59.1206 50.58C58.3473 51.06 57.424 51.3 56.3506 51.3ZM56.3206 49.61C57.454 49.61 58.294 49.24 58.8406 48.5C59.394 47.7533 59.6706 46.7833 59.6706 45.59C59.6706 44.3633 59.3906 43.39 58.8306 42.67C58.2773 41.95 57.444 41.59 56.3306 41.59C55.2573 41.59 54.4406 41.9467 53.8806 42.66C53.3206 43.3733 53.0406 44.3467 53.0406 45.58C53.0406 46.8 53.3173 47.7767 53.8706 48.51C54.4306 49.2433 55.2473 49.61 56.3206 49.61ZM68.3016 51.3C67.2082 51.3 66.2782 51.0567 65.5116 50.57C64.7516 50.0767 64.1716 49.4 63.7716 48.54C63.3716 47.68 63.1649 46.7 63.1516 45.6C63.1649 44.4733 63.3749 43.4833 63.7816 42.63C64.1949 41.77 64.7849 41.1 65.5516 40.62C66.3182 40.14 67.2416 39.9 68.3216 39.9C69.4616 39.9 70.4416 40.18 71.2616 40.74C72.0882 41.3 72.6416 42.0667 72.9216 43.04L71.1616 43.57C70.9349 42.9433 70.5649 42.4567 70.0516 42.11C69.5449 41.7633 68.9616 41.59 68.3016 41.59C67.5616 41.59 66.9516 41.7633 66.4716 42.11C65.9916 42.45 65.6349 42.9233 65.4016 43.53C65.1682 44.13 65.0482 44.82 65.0416 45.6C65.0549 46.8 65.3316 47.77 65.8716 48.51C66.4182 49.2433 67.2282 49.61 68.3016 49.61C69.0082 49.61 69.5949 49.45 70.0616 49.13C70.5282 48.8033 70.8816 48.3333 71.1216 47.72L72.9216 48.19C72.5482 49.1967 71.9649 49.9667 71.1716 50.5C70.3782 51.0333 69.4216 51.3 68.3016 51.3ZM77.6272 51V41.82H73.8672V40.2H83.1672V41.82H79.4072V51H77.6272ZM90.0202 51.3C89.0068 51.3 88.1535 51.05 87.4602 50.55C86.7668 50.0433 86.2402 49.36 85.8802 48.5C85.5268 47.6333 85.3502 46.6633 85.3502 45.59C85.3502 44.5033 85.5268 43.53 85.8802 42.67C86.2402 41.81 86.7668 41.1333 87.4602 40.64C88.1602 40.1467 89.0168 39.9 90.0302 39.9C91.0302 39.9 91.8902 40.15 92.6102 40.65C93.3368 41.1433 93.8935 41.82 94.2802 42.68C94.6668 43.54 94.8602 44.51 94.8602 45.59C94.8602 46.67 94.6668 47.64 94.2802 48.5C93.8935 49.36 93.3368 50.0433 92.6102 50.55C91.8902 51.05 91.0268 51.3 90.0202 51.3ZM85.0502 55.8V40.2H86.6402V48.15H86.8402V55.8H85.0502ZM89.8002 49.67C90.5135 49.67 91.1035 49.49 91.5702 49.13C92.0368 48.77 92.3868 48.2833 92.6202 47.67C92.8535 47.05 92.9702 46.3567 92.9702 45.59C92.9702 44.83 92.8535 44.1433 92.6202 43.53C92.3935 42.9167 92.0402 42.43 91.5602 42.07C91.0868 41.71 90.4835 41.53 89.7502 41.53C89.0502 41.53 88.4702 41.7033 88.0102 42.05C87.5502 42.39 87.2068 42.8667 86.9802 43.48C86.7535 44.0867 86.6402 44.79 86.6402 45.59C86.6402 46.3767 86.7502 47.08 86.9702 47.7C87.1968 48.3133 87.5435 48.7967 88.0102 49.15C88.4768 49.4967 89.0735 49.67 89.8002 49.67ZM97.0523 51L97.0423 40.2H98.8323V44.11H100.482C100.796 44.11 101.116 44.1167 101.442 44.13C101.769 44.1433 102.052 44.1733 102.292 44.22C102.852 44.3333 103.342 44.5233 103.762 44.79C104.182 45.0567 104.509 45.4167 104.742 45.87C104.976 46.3233 105.092 46.8867 105.092 47.56C105.092 48.4933 104.849 49.2333 104.362 49.78C103.882 50.32 103.252 50.68 102.472 50.86C102.206 50.92 101.899 50.96 101.552 50.98C101.212 50.9933 100.889 51 100.582 51H97.0523ZM98.8323 49.53H100.612C100.812 49.53 101.036 49.5233 101.282 49.51C101.529 49.4967 101.749 49.4633 101.942 49.41C102.282 49.31 102.586 49.1133 102.852 48.82C103.126 48.5267 103.262 48.1067 103.262 47.56C103.262 47.0067 103.129 46.58 102.862 46.28C102.602 45.98 102.259 45.7833 101.832 45.69C101.639 45.6433 101.436 45.6133 101.222 45.6C101.009 45.5867 100.806 45.58 100.612 45.58H98.8323V49.53ZM106.332 51V40.2H108.112V51H106.332Z" fill="#454545"/>
</svg>
