<svg width="286.000000" height="48.000000" viewBox="0 0 286 48" fill="none" xmlns="http://www.w3.org/2000/svg" xmlns:xlink="http://www.w3.org/1999/xlink">
	<desc>
			Created with Pixso.
	</desc>
	<defs/>
	<path id="Vector" d="M0 12C0 9.23 2.3 7 5.14 7L30.85 7C33.69 7 36 9.23 36 12L36 37C36 39.76 33.69 42 30.85 42L5.14 42C2.3 42 0 39.76 0 37L0 12Z" fill="#454545" fill-opacity="1.000000" fill-rule="nonzero"/>
	<path id="Vector" d="M18 19.94C17.7 19.94 17.42 19.83 17.21 19.63C17.01 19.42 16.89 19.15 16.89 18.87L16.89 14.57C16.89 14.28 17.01 14.01 17.21 13.81C17.42 13.61 17.7 13.5 18 13.5C18.29 13.5 18.57 13.61 18.78 13.81C18.98 14.01 19.1 14.28 19.1 14.57L19.1 18.87C19.1 19.15 18.98 19.42 18.78 19.63C18.57 19.83 18.29 19.94 18 19.94ZM18 35.5C17.7 35.5 17.42 35.38 17.21 35.18C17.01 34.98 16.89 34.71 16.89 34.42L16.89 30.12C16.89 29.84 17.01 29.57 17.21 29.36C17.42 29.16 17.7 29.05 18 29.05C18.29 29.05 18.57 29.16 18.78 29.36C18.98 29.57 19.1 29.84 19.1 30.12L19.1 34.42C19.1 34.71 18.98 34.98 18.78 35.18C18.57 35.38 18.29 35.5 18 35.5ZM12.21 25.57L7.79 25.57C7.49 25.57 7.21 25.46 7 25.25C6.8 25.05 6.68 24.78 6.68 24.5C6.68 24.21 6.8 23.94 7 23.74C7.21 23.53 7.49 23.42 7.79 23.42L12.21 23.42C12.5 23.42 12.78 23.53 12.99 23.74C13.19 23.94 13.31 24.21 13.31 24.5C13.31 24.78 13.19 25.05 12.99 25.25C12.78 25.46 12.5 25.57 12.21 25.57ZM28.2 25.57L23.78 25.57C23.49 25.57 23.21 25.46 23 25.25C22.8 25.05 22.68 24.78 22.68 24.5C22.68 24.21 22.8 23.94 23 23.74C23.21 23.53 23.49 23.42 23.78 23.42L28.2 23.42C28.5 23.42 28.78 23.53 28.99 23.74C29.19 23.94 29.31 24.21 29.31 24.5C29.31 24.78 29.19 25.05 28.99 25.25C28.78 25.46 28.5 25.57 28.2 25.57ZM22.09 21.59C21.87 21.59 21.66 21.53 21.48 21.41C21.29 21.29 21.15 21.12 21.07 20.92C20.99 20.73 20.96 20.51 21.01 20.3C21.05 20.1 21.16 19.91 21.31 19.76L24.43 16.72C24.53 16.61 24.66 16.53 24.79 16.47C24.93 16.41 25.07 16.38 25.22 16.38C25.37 16.38 25.51 16.41 25.65 16.46C25.79 16.51 25.91 16.59 26.02 16.7C26.12 16.8 26.21 16.92 26.26 17.05C26.32 17.18 26.34 17.33 26.34 17.47C26.34 17.61 26.31 17.76 26.25 17.89C26.19 18.02 26.1 18.14 25.99 18.24L22.87 21.27C22.77 21.37 22.65 21.45 22.51 21.51C22.38 21.56 22.23 21.59 22.09 21.59ZM10.78 32.59C10.56 32.59 10.34 32.52 10.16 32.41C9.98 32.29 9.84 32.12 9.76 31.92C9.67 31.73 9.65 31.51 9.69 31.3C9.74 31.1 9.84 30.9 10 30.75L13.12 27.72C13.22 27.62 13.34 27.54 13.48 27.48C13.61 27.43 13.76 27.4 13.9 27.4C14.05 27.4 14.19 27.43 14.32 27.48C14.46 27.54 14.58 27.62 14.68 27.72C14.79 27.82 14.87 27.94 14.92 28.07C14.98 28.2 15.01 28.34 15.01 28.48C15.01 28.62 14.98 28.76 14.92 28.89C14.87 29.02 14.79 29.14 14.68 29.24L11.56 32.27C11.45 32.37 11.33 32.45 11.2 32.51C11.06 32.56 10.92 32.59 10.78 32.59ZM13.9 21.59C13.76 21.59 13.61 21.56 13.48 21.51C13.34 21.45 13.22 21.37 13.12 21.27L10 18.24C9.89 18.14 9.8 18.02 9.74 17.89C9.68 17.76 9.65 17.61 9.65 17.47C9.65 17.33 9.67 17.18 9.73 17.05C9.79 16.92 9.87 16.8 9.97 16.7C10.08 16.59 10.2 16.51 10.34 16.46C10.48 16.41 10.62 16.38 10.77 16.38C10.92 16.38 11.06 16.41 11.2 16.47C11.33 16.53 11.46 16.61 11.56 16.72L14.68 19.76C14.84 19.91 14.94 20.1 14.99 20.31C15.03 20.51 15.01 20.73 14.92 20.93C14.84 21.12 14.7 21.29 14.52 21.41C14.33 21.53 14.12 21.59 13.9 21.59ZM25.21 32.59C25.07 32.59 24.93 32.56 24.79 32.51C24.66 32.45 24.54 32.37 24.43 32.27L21.31 29.23C21.12 29.03 21.02 28.76 21.03 28.49C21.03 28.21 21.15 27.95 21.35 27.76C21.55 27.56 21.82 27.45 22.1 27.44C22.38 27.43 22.66 27.53 22.87 27.72L25.99 30.75C26.15 30.9 26.25 31.1 26.3 31.3C26.34 31.51 26.32 31.73 26.23 31.92C26.15 32.12 26.01 32.29 25.83 32.41C25.65 32.52 25.43 32.59 25.21 32.59Z" fill="#FFFFFF" fill-opacity="1.000000" fill-rule="nonzero"/>
	<path id="NORNLIGHT" d="M96.33 9.5C103.78 9.5 109.18 15.25 109.18 24.45C109.18 33.65 103.78 39.4 96.33 39.4C88.89 39.4 83.49 33.65 83.49 24.45C83.49 15.25 88.89 9.5 96.33 9.5ZM227.35 19L223.72 19C222.49 15.18 219.63 12.8 215.43 12.8C210.26 12.8 206.1 16.9 206.1 24.45C206.1 32 210.26 36.09 215.66 36.09C220.59 36.09 224.02 32.8 224.12 27.58L216.45 27.58L216.45 24.45L227.53 24.45L227.53 27.58C227.53 34.78 222.59 39.4 215.66 39.4C207.93 39.4 202.7 33.65 202.7 24.45C202.7 15.25 207.97 9.5 215.43 9.5C221.56 9.5 226.28 13.37 227.35 19ZM74.12 9.9L77.59 9.9L77.59 39L74.18 39L58.33 16.15L58.04 16.15L58.04 39L54.52 39L54.52 9.9L57.93 9.9L73.84 32.8L74.12 32.8L74.12 9.9ZM118.6 39L115.09 39L115.09 9.9L124.91 9.9C131.73 9.9 134.81 13.68 134.81 18.83C134.81 22.69 133.07 25.71 129.37 26.97L135.94 39L131.85 39L125.71 27.62C125.47 27.63 125.23 27.63 124.97 27.63L118.6 27.63L118.6 39ZM160.26 9.9L163.72 9.9L163.72 39L160.32 39L144.47 16.15L144.17 16.15L144.17 39L140.66 39L140.66 9.9L144.07 9.9L159.97 32.8L160.26 32.8L160.26 9.9ZM187.81 39L170.77 39L170.77 9.9L174.29 9.9L174.29 35.87L187.81 35.87L187.81 39ZM193.27 9.9L196.79 9.9L196.79 39L193.27 39L193.27 9.9ZM237.07 39L233.55 39L233.55 9.9L237.07 9.9L237.07 22.86L252.59 22.86L252.59 9.9L256.11 9.9L256.11 39L252.59 39L252.59 25.99L237.07 25.99L237.07 39ZM270.72 13.03L261.57 13.03L261.57 9.9L283.38 9.9L283.38 13.03L274.23 13.03L274.23 39L270.72 39L270.72 13.03ZM96.33 36.09C101.62 36.09 105.77 32 105.77 24.45C105.77 16.9 101.62 12.8 96.33 12.8C91.05 12.8 86.9 16.9 86.9 24.45C86.9 32 91.05 36.09 96.33 36.09ZM118.6 13.03L118.6 24.45L124.85 24.45C129.52 24.45 131.34 22.32 131.34 18.83C131.34 15.33 129.52 13.03 124.81 13.03L118.6 13.03Z" fill="#454545" fill-opacity="1.000000" fill-rule="evenodd"/>
</svg>
